<?xml version="1.0" encoding="UTF-8"?> <!-- Generator: Adobe Illustrator 18.0.0, SVG Export Plug-In . SVG Version: 6.00 Build 0) --> <svg xmlns="http://www.w3.org/2000/svg" xmlns:xlink="http://www.w3.org/1999/xlink" id="Слой_1" x="0px" y="0px" viewBox="0 0 3343.3 954.2" xml:space="preserve"> <g> <path fill="#08090A" d="M1277.6,545.3c0,39.5,0.4,78.9-0.1,118.4c-0.5,46.8-20.3,82.4-63,103.6c-10.5,5.2-21.5,8.9-33.7,9.9 c-23.5,2.1-46.7,2.6-70.3,0.2c-39.5-4-80.2-34.9-93.5-72.7c-2.2-6.2-1-8.2,4.9-8.3c19.3-0.1,38.6-0.1,57.9,0c3.6,0,6.5,1.8,9.4,4.1 c31.5,24.6,65.8,22.5,100.2,8.4c19.1-7.8,32.8-41.5,27.5-60.9c-1.6-6-4.7-5.7-8.3-2.1c-23.6,23.7-52.8,29.1-84.5,26.1 c-48.2-4.6-80.1-32.9-98-75c-21.5-50.7-18.7-102.1,11.6-149.3c24.7-38.4,61.5-56.8,107.1-52.7c22.1,2,43,10.6,59.8,26.7 c2.7,2.6,5.2,7.2,9.6,5.5c4.5-1.7,3.5-6.8,2.9-10.5c-2.2-13.2,2.5-18.3,16.2-16.7c10.8,1.3,22,1.1,32.8,0.1 c11.3-1.1,12,4.9,12,13.5c-0.2,43.9-0.1,87.7-0.1,131.6C1277.9,545.3,1277.8,545.3,1277.6,545.3z M1076.7,535 c0.6,6.1,0.9,12.3,2,18.3c5.2,27.7,21,48.2,47.5,56.1c27.5,8.2,54.7,4.7,75.5-19c20.1-22.8,24.2-63.6,11.6-92.7 c-13.8-31.8-54.7-47.2-82.9-39.1C1104.7,466,1075.4,492.6,1076.7,535z"></path> <path fill="#08090A" d="M2219.2,543.2c0,39,0.9,78.1-0.2,117c-1.4,47.3-19.2,85.7-64.2,107.1c-10.5,5-21.6,8.7-33.6,9.8 c-22.6,2.2-45,3.1-67.7,0.3c-43-5.4-73.6-27.2-92.9-65.7c-1.4-2.7-2.6-5.5-4.3-8c-3.6-5.3-1-7.4,4-7.4c20.6-0.1,41.3-0.9,61.8,0.7 c9.7,0.8,15.5,12,25.4,15.2c28.1,9.2,56,9.8,82.8-3.2c17.7-8.6,31.5-40.5,28.1-59.9c-1.6-9.1-6.6-5.1-10-2.1 c-8.3,7.3-16.8,14-27.2,17.9c-67.9,24.8-131.6-9.4-155.1-70.2c-18.7-48.4-16.9-96.1,8.5-141.2c19.3-34.3,49.9-54.8,89.7-58.7 c30.6-3,57.6,7.1,81,26.8c3.3,2.7,6.4,7.3,11,5.1c4-1.9,2.6-7.1,2.2-10.9c-1.4-11.1,2.8-14.8,14.1-13.6c11.7,1.2,23.7,1.2,35.5,0 c10.4-1.1,11.7,3.6,11.6,12C2219.2,457.3,2219.3,500.2,2219.2,543.2C2219.2,543.2,2219.2,543.2,2219.2,543.2z M2160.8,534.6 c-0.5-5.2-0.9-10.5-1.4-15.7c-5.6-52-65.5-80.4-108.9-51.6c-30,19.9-42.4,63.8-28.2,99.8c16.3,41,65.4,59,103.4,36.7 C2151.4,588.5,2161.1,563.9,2160.8,534.6z"></path> <path fill="#08090A" d="M82.4,375.6c0,74.6,0,149.1,0,223.7c0,16.5,0.7,17.1,16.9,17.1c85.5,0.1,171,0.4,256.6,0.1 c10.4,0,14,2.4,13.1,13.2c-1.1,12.2-1.2,24.6-0.1,36.8c0.9,10.4-2.9,12.8-12.5,12.7c-67.1-0.4-134.2-0.3-201.3-0.4 c-41.2-0.1-82.5-0.5-123.7-0.3c-9.8,0.1-12.8-1.8-12.4-13c1-29.7-1.2-59.6-0.6-89.3c2.8-142.9,1.1-285.9,1.3-428.8 c0-9.4,2.6-14.7,13.8-13.5c11.3,1.2,22.9,1.2,34.2,0c11-1.2,13.7,3.4,13.6,12.9c-0.1,22.4,0.4,44.7,0.4,67.1 c0.1,53.9,0,107.9,0,161.8C81.9,375.6,82.2,375.6,82.4,375.6z"></path> <path fill="#08090A" d="M1897.3,538.4c0,40.8-0.4,81.6,0.3,122.3c0.2,10.4-3.4,12.8-12.8,12.2c-11.8-0.8-23.7-0.8-35.5,0.1 c-11.3,0.9-16.9-2.1-14.6-14.4c0.6-3.2,1.8-7.6-2.4-9.2c-3.6-1.4-6.6,1.1-9.2,3.7c-40,40.6-121.6,33.2-159.5-16.4 c-33.7-44-39.3-92.7-27.3-145.1c7.9-34.6,27.1-61.4,56.7-80.4c41-26.2,92.1-21.8,128.8,10.2c3.1,2.7,6,6,10.1,4.4 c4.6-1.9,2.8-6.7,2.8-10.4c0.1-15.2,1.2-16.3,15.6-13.3c10.5,2.2,21.1,0.8,31.4,0.2c11.9-0.7,16.1,2.7,15.9,15.3 C1896.8,457.7,1897.3,498.1,1897.3,538.4z M1837.1,540.5c0.1-15.5-1.4-28.2-6.4-40.8c-17.4-43.6-73-58.4-108.7-28.4 c-35.9,30.2-39.4,92-7.1,126c28.1,29.6,73.5,29.6,101.2-0.3C1831.4,580.6,1838,560.7,1837.1,540.5z"></path> <path fill="#08090A" d="M664.3,537.4c0,41.2-0.3,82.4,0.2,123.6c0.1,8.4-2.7,10.8-10.4,10.8c-14.9,0-29.8,0.6-44.6,0.9 c-11.3,0.3-9.6-7.4-9.1-14.6c0.2-3.3,1.7-7.4-3.1-8.8c-3.4-1.1-5.8,1-8,3.3C552,692.2,471.6,685.6,432,640.4 c-49.8-56.8-47.1-167.7,10.4-217.5c42-36.4,105.5-38.6,146.3-0.3c2.7,2.5,5.4,5.2,9.1,3.8c4.5-1.6,2.5-5.9,2.5-9.2 c-0.2-16.6,0.7-16.9,17.7-15c11.3,1.2,22.7,0.5,34.1,0.3c8.1-0.2,11.8,2.3,11.6,11.3c-0.5,20.6,0.3,41.2,0.4,61.7 c0.1,20.6,0,41.2,0,61.8C664.1,537.4,664.2,537.4,664.3,537.4z M459.2,540.6c-0.6,8.9,1,20.5,5.7,31.6 c9.4,21.9,23.8,39.2,47.8,44.7c28.5,6.6,54,0.4,72.6-24c20.9-27.4,22.2-57.6,12.5-89.5c-12.1-39.8-63.8-60.8-99.6-39.6 C470.4,480.4,458.5,505.7,459.2,540.6z"></path> <path fill="#08090A" d="M144.3,399.6c0-43.8,0.2-87.7-0.2-131.5c-0.1-7.9,1.7-10.6,10-10.6c67.5,0.1,135-0.1,202.4-0.8 c10-0.1,10.3,4.7,10.4,12c0.3,84.5,0.9,169.1,1.3,253.6c0.1,23.6-1.9,24.6-25.2,21.8c-33.2-4-66.5-1.5-99.8-1.5 c-28.8-0.1-57.7,0.7-86.4,2.3c-10.8,0.6-12.7-3.5-12.7-12.6C144.4,488.1,144.3,443.8,144.3,399.6 C144.3,399.6,144.3,399.6,144.3,399.6z M223.3,517.6c3.9,7,5.5,17.7,17,14.3c10.2-3.1,9.5-12.1,9.5-20.7c0-43.4,0-86.8,0.5-130.3 c0.1-8-4.6-20.1,2.3-23.3c8.8-4.1,13,9,19.6,14.1c4.3,3.3,8.2,7.9,13.7,4.7c8.9-5.4,17.4-11.7,25.6-18.1c3.9-3,4.4-7.4,1.1-11.7 c-3.7-4.7-7.5-3.2-11.4-0.3c-1.4,1-3.2,1.6-4.5,2.7c-9.3,8.3-16.6,6.7-23.3-3.5c-8.4-12.8-20-19-35.7-16.3 c-3.5,0.6-8.6,3.2-10.5-1.7c-2.3-5.9,3.9-6.5,7.2-8.9c9.8-7.4,10.6-17.7,2.5-27.3c-6.8-8.1-19-8.6-26.8-1.2 c-8.5,8.1-8.6,20.4-0.1,27.7c3.1,2.6,9.4,3.4,6.7,9.3c-2.5,5.5-7.8,2.2-11.8,2c-18.6-0.7-26.8,4.2-28.3,21.4 c-1.6,18.7-1.2,37.7-0.5,56.5c0.3,7,3.8,15.3,13.5,9.4c10.2-6.2,8.4,0.4,8.3,6.4c-0.5,27.6-1,55.2-1.4,82.8c-0.1,5.7,0,11.4,0.6,17 c0.5,5.4,3.9,9,9.3,9.5c5.7,0.5,10.3-1.5,12.3-7.4C219.5,522.6,218.4,519.4,223.3,517.6z M341.1,290.8c-5.6,1.1-11.7,2.8-11.5,10.7 c0.2,7.2,5,11,11.7,11.4c7,0.4,10.3-5.1,10.5-10.8C352,296.2,348.9,291.1,341.1,290.8z M341.4,381.8c-5.6,1.4-11.2,3.7-11.7,10.3 c-0.6,7.7,5,12.4,11.8,13c6.8,0.6,9.5-5.9,10.3-11.6C352.7,386.5,347.6,383.6,341.4,381.8z M340.3,351.2 c-4.9,2.5-11.9,4.3-10.5,12.2c1.1,6.5,6.2,11,12.8,10.3c6.1-0.6,10.2-5.4,9.5-11.9C351.4,355.7,347.5,351.7,340.3,351.2z M341.8,343.8c6.4-1.4,10.6-5.3,10.3-11.5c-0.3-5.9-3.9-11.1-10.7-10.7c-6.4,0.4-12,3.6-11.7,11.1 C330,339.9,335.5,342.6,341.8,343.8z"></path> <path fill="#08090A" d="M2436.8,556.2c-27.6,0-55.2-0.1-82.8,0c-16.7,0-17.1,1.6-12.2,16.8c15.6,48.7,75.8,64.2,117.9,35 c13.7-9.5,23.4-11.5,36.9-3.1c8.1,5.1,17,8.7,25.7,12.9c5.8,2.8,7.8,5.1,2.5,11.5c-25.9,31.4-57.4,49.7-99.3,49 c-30.2-0.5-60,0.2-86.6-18.3c-30.1-20.9-50.2-47.8-57.8-83.9c-11.1-53.2-2.9-101.9,35.4-142.2c33.1-34.8,74.4-44.5,121.2-36.6 c38.8,6.6,67.8,27.1,87.8,60.1c16.4,27,22.4,57.2,22.3,88.8c0,6.7-2.8,7.5-8.6,8.3c-27.1,3.8-54.2,1-81.3,1.9c-7,0.2-14,0-21,0 C2436.8,556.2,2436.8,556.2,2436.8,556.2z M2411.6,505c0-0.1,0-0.1,0-0.2c18.8,0,37.6,0.1,56.4-0.1c4.5-0.1,10.4,2.7,13-2.9 c2.4-5.3-1-10-3.7-14.5c-14.8-24.3-36.9-37.4-64.9-37.1c-30.1,0.3-53.1,15-67.4,42.1c-4.8,9.1-2.7,12.7,7.6,12.7 C2372.2,505.1,2391.9,505,2411.6,505z"></path> <path fill="#08090A" d="M731.7,537.7c0-40.8,0.2-81.6-0.1-122.3c-0.1-8.7,2-13,11.6-13c12.2,0,24.5-0.9,36.6-2.2 c11-1.2,15.5,2.9,14.1,13.9c-0.5,3.8-1.9,8.3,2.3,10.8c4.7,2.8,7-1.9,9.8-4.3c16-13.7,34.6-22.6,55.2-25.3 c39.3-5.1,86.3,18.6,95,65.6c3.9,20.9,4.7,41.7,4.6,62.7c-0.2,46-0.2,92.1,0.3,138.1c0.1,8.2-2.7,11.2-10.4,11.2 c-14-0.1-28.1-0.2-42.1,0c-7.2,0.1-9.9-2.5-10-10.1c-0.8-51.6-2.3-103.3-3.2-154.9c-0.3-18.9-5.1-35.9-21.7-46.7 c-19.1-12.4-44.5-7.1-60.1,11.7c-11.8,14.3-18.5,31.1-18.9,49.4c-1.1,46-1.2,92.1-1.1,138.1c0,8.4-1.5,11.9-10.7,11.4 c-13.1-0.8-26.3-0.6-39.4-0.1c-8.7,0.3-12.4-1.8-12.2-11.6C732,619.3,731.6,578.5,731.7,537.7C731.6,537.7,731.6,537.7,731.7,537.7 z"></path> <path fill="#08090A" d="M1575.4,484.5c0.4,38.1,2,76.4-7.3,113.8c-8.7,34.9-26.8,63.9-63.6,73.9c-38.8,10.5-78.3,13.3-113-13.3 c-23.1-17.7-35.4-41.9-38.7-71.1c-6.5-57.7-3.5-115.6-4.7-173.4c-0.2-7.5,2.8-11.1,9.3-11.3c14.9-0.5,29.8-0.3,44.7-0.3 c6.8,0,8.4,4.1,8.5,10.4c0.9,52.9,2,105.9,3.2,158.8c0.6,25.9,20.5,45,47.3,45.3c27.9,0.3,46.1-16.5,47.7-43.8 c3.2-52.9,4.8-105.8,4.5-158.7c0-8.8,2.1-12.8,11.9-12.1c12.2,0.9,24.5,0.7,36.8,0.1c10-0.5,14.1,2.4,13.7,13.3 C1574.8,438.9,1575.4,461.7,1575.4,484.5z"></path> <path fill="#08090A" d="M3063.3,565.4c0-32-0.2-64,0.1-96c0.1-8.8-2.4-13.6-11.8-12.9c-9.3,0.7-12.3-3.4-11.4-12.6 c0.9-9.6,0.3-19.3,0.1-28.9c-0.1-9.5,3.3-15.6,13.8-14.2c8.6,1.2,8.8-3.3,9.1-10c0.7-20-1.6-40.1,4.5-59.9 c10.1-32.8,36.3-48.7,70.4-41c7.2,1.6,14,4.4,21.7,4.4c6.9,0.1,11,5.6,11.3,12.2c0.6,10.9,0.2,21.8,0,32.7 c-0.1,6.6-3.4,7.6-9.6,6.2c-23.8-5.5-35.7,4.2-35.8,28.5c-0.1,27.8-0.1,28.3,28.5,27c10.5-0.5,14.4,2.7,13.9,13.1 c-0.5,11.4-0.2,22.8-0.1,34.2c0.1,6.5-1.8,8.8-9.2,8.7c-39.8-0.5-33,0.6-33.2,34.7c-0.2,56.5-0.1,113.1,0.3,169.6 c0.1,7.8-1.5,11.4-9.9,11.2c-14.5-0.4-28.9-0.4-43.4,0c-8.2,0.3-10.4-3-10.3-10.9c0.4-32,0.2-64,0.2-96 C3063.1,565.4,3063.2,565.4,3063.3,565.4z"></path> <path fill="#08090A" d="M2747.6,489.5c0-57.4,0.2-114.9-0.2-172.3c-0.1-8.3,2.1-10.8,10.2-10.4c14,0.5,28.1,0.4,42.1,0 c8-0.2,11.3,1.7,11.3,11.1c-0.5,91.6-0.4,183.3-0.5,274.9c0,11,2.9,16.8,15.9,16.2c23.2-1.1,46.5,0.2,69.7-0.4 c8.9-0.2,11.5,2.7,11.2,11.2c-0.5,14.5-0.3,28.9,0.1,43.4c0.2,6.3-2.1,8.5-8.3,8.5c-47.8-0.2-95.6-0.2-143.4,0 c-7.5,0-8.1-3.5-8.1-9.9C2747.7,604.4,2747.6,546.9,2747.6,489.5z"></path> <path fill="#08090A" d="M3278.8,567.1c0,31.1-0.4,62.2,0.3,93.3c0.2,9.7-2.7,11.9-11.8,11.4c-13.1-0.8-26.3-0.5-39.4-0.1 c-7.6,0.2-10.6-1.6-10.6-10.3c0.4-62.2-0.1-124.4,0.5-186.6c0.1-11.4-2.9-15.6-14.5-15.6c-20.6,0.1-20.6-0.4-20.6-20.6 c0-8.3,0.4-16.7-0.3-25c-1-10.8,3.7-13.8,13.8-13.5c26.7,0.8,21.3,0.5,21.4-21.7c0.2-22.3,0.4-44.7-0.3-67 c-0.3-8.4,2.4-10.8,10.3-10.5c14,0.5,28,0.5,42,0c7.7-0.3,9.5,2.4,9.4,9.8c-0.3,26.3,0.4,52.6,0.1,78.8c-0.1,8.6,2.5,11.2,11.3,11 c30.1-0.8,25.7-3.1,26,25.3c0,1.8,0.1,3.5,0,5.3c-0.5,8.7,3.3,19.1-1.7,25.7c-5.5,7.2-16.2,1.9-24.5,2.3 c-8.6,0.5-11.2,3.5-11.1,11.9c0.4,32,0.2,64,0.2,95.9C3279.1,567.1,3279,567.1,3278.8,567.1z"></path> <path fill="#08090A" d="M3011.3,534.9c0,42.5-0.1,84.9,0.1,127.4c0,6.8-2.6,9.8-9.1,9.8c-15.3,0-30.7,0.1-46,0 c-5.5,0-7.5-1.4-7.5-8.6c0.2-65.2,3.9-130.4-1.7-195.5c-1.6-18.7-0.7-37.6-0.8-56.4c0-6.9,3.7-10.7,10.5-10.7 c14.4-0.2,28.9-0.5,43.3,0.3c7,0.4,11.3,4.2,11.2,12.9c-0.5,40.3-0.2,80.6-0.2,120.9C3011.2,534.9,3011.3,534.9,3011.3,534.9z"></path> <path fill="#08090A" d="M3019.3,333.3c-0.3,24.7-16.9,41.9-40.5,41.8c-23.7-0.1-39-18.2-40-44c-1-25.4,23.3-43,40.7-42.8 C3001.7,288.6,3019.6,308.7,3019.3,333.3z"></path> <path fill="#08090A" d="M214.4,178.5c11-15.2,37.8-22.5,53.5-14.8c5.9,2.9,12,5.2,17.9,8c2.4,1.1,4.9,2.9,4.4,5.9 c-0.7,4-3.9,2.1-6.3,2c-15.7-0.5-21.1,6.5-17.6,22.1c1.1,4.8,3.9,6.2,8.4,6.3c5.5,0.1,11.3-2,17.5,1.5c-11.3,9.7-26.3,12-37.1,21.2 c-1,0.8-3.8,0.9-4.9,0.1c-11.3-8.8-25.5-12.5-38.2-20.7c8.5-6.2,19.6,2.4,25-5.4c3-4.3,2.5-12,1.5-17.8 C235.9,170.4,222.7,183.4,214.4,178.5z"></path> <path fill="#F7F7F7" d="M1076.7,535c-1.3-42.4,28-69,53.7-76.4c28.2-8.2,69.1,7.3,82.9,39.1c12.6,29.1,8.5,69.9-11.6,92.7 c-20.9,23.7-48,27.2-75.5,19c-26.4-7.9-42.3-28.4-47.5-56.1C1077.6,547.2,1077.3,541.1,1076.7,535z"></path> <path fill="#F7F7F7" d="M2160.8,534.6c0.4,29.3-9.4,53.9-35.2,69.1c-38,22.4-87.1,4.4-103.4-36.7c-14.2-35.9-1.8-79.9,28.2-99.8 c43.4-28.8,103.3-0.4,108.9,51.6C2159.9,524.1,2160.3,529.4,2160.8,534.6z"></path> <path fill="#F7F7F7" d="M1837.1,540.5c0.9,20.2-5.7,40-21,56.6c-27.7,29.8-73.2,29.9-101.2,0.3c-32.3-34-28.8-95.9,7.1-126 c35.7-30,91.2-15.2,108.7,28.4C1835.7,512.3,1837.2,525,1837.1,540.5z"></path> <path fill="#F7F7F7" d="M459.2,540.6c-0.7-34.9,11.2-60.2,39.1-76.7c35.7-21.2,87.5-0.3,99.6,39.6c9.7,31.9,8.4,62.1-12.5,89.5 c-18.7,24.4-44.1,30.6-72.6,24c-24-5.6-38.4-22.9-47.8-44.7C460.1,561.1,458.5,549.5,459.2,540.6z"></path> <path fill="#F7F7F7" d="M223.3,517.6c-4.9,1.8-3.7,5-4.5,7.3c-2,5.9-6.6,8-12.3,7.4c-5.4-0.5-8.8-4.1-9.3-9.5 c-0.6-5.6-0.7-11.4-0.6-17c0.4-27.6,0.9-55.2,1.4-82.8c0.1-6,1.9-12.6-8.3-6.4c-9.7,5.9-13.3-2.4-13.5-9.4 c-0.7-18.8-1.1-37.8,0.5-56.5c1.5-17.2,9.7-22.2,28.3-21.4c4,0.2,9.3,3.5,11.8-2c2.7-6-3.6-6.7-6.7-9.3c-8.5-7.3-8.4-19.7,0.1-27.7 c7.8-7.4,20-6.9,26.8,1.2c8.1,9.6,7.3,19.9-2.5,27.3c-3.3,2.5-9.5,3-7.2,8.9c1.9,4.9,7.1,2.3,10.5,1.7c15.8-2.7,27.4,3.5,35.7,16.3 c6.7,10.2,14,11.9,23.3,3.5c1.3-1.1,3.1-1.7,4.5-2.7c3.9-2.8,7.8-4.4,11.4,0.3c3.3,4.2,2.8,8.6-1.1,11.7 c-8.3,6.4-16.7,12.7-25.6,18.1c-5.4,3.3-9.3-1.3-13.7-4.7c-6.6-5.1-10.7-18.1-19.6-14.1c-6.8,3.1-2.2,15.2-2.3,23.3 c-0.5,43.4-0.5,86.8-0.5,130.3c0,8.6,0.7,17.7-9.5,20.7C228.8,535.3,227.2,524.6,223.3,517.6z"></path> <path fill="#F7F7F7" d="M341.1,290.8c7.8,0.4,11,5.4,10.7,11.3c-0.2,5.7-3.5,11.2-10.5,10.8c-6.7-0.4-11.6-4.2-11.7-11.4 C329.4,293.6,335.5,291.9,341.1,290.8z"></path> <path fill="#F7F7F7" d="M341.4,381.8c6.2,1.8,11.3,4.8,10.4,11.7c-0.8,5.7-3.5,12.2-10.3,11.6c-6.8-0.6-12.4-5.3-11.8-13 C330.2,385.5,335.8,383.2,341.4,381.8z"></path> <path fill="#F7F7F7" d="M340.3,351.2c7.2,0.5,11.2,4.5,11.9,10.6c0.7,6.5-3.5,11.3-9.5,11.9c-6.6,0.7-11.7-3.8-12.8-10.3 C328.4,355.5,335.3,353.7,340.3,351.2z"></path> <path fill="#F7F7F7" d="M341.8,343.8c-6.3-1.2-11.8-3.9-12.1-11.1c-0.3-7.5,5.3-10.7,11.7-11.1c6.8-0.4,10.4,4.9,10.7,10.7 C352.4,338.5,348.2,342.4,341.8,343.8z"></path> <path fill="#F7F7F7" d="M2411.6,505c-19.7,0-39.3,0.1-59,0c-10.3-0.1-12.4-3.6-7.6-12.7c14.3-27.1,37.2-41.8,67.4-42.1 c28-0.3,50.1,12.8,64.9,37.1c2.8,4.5,6.2,9.3,3.7,14.5c-2.6,5.7-8.6,2.9-13,2.9c-18.8,0.2-37.6,0.1-56.4,0.1 C2411.6,504.9,2411.6,504.9,2411.6,505z"></path> <path fill="#FDFDFD" d="M2358.4,896.4c-0.1,0.3-0.3,0.6-0.4,0.9c-0.4-0.3-0.8-0.6-1.2-1c0.3-0.3,0.6-0.6,0.9-0.9 C2357.9,895.8,2358.2,896.1,2358.4,896.4z"></path> </g> </svg> 