<?xml version="1.0" standalone="no"?><!DOCTYPE svg PUBLIC "-//W3C//DTD SVG 1.1//EN" "http://www.w3.org/Graphics/SVG/1.1/DTD/svg11.dtd"><svg t="1608293978479" class="icon" viewBox="0 0 1171 1024" version="1.1" xmlns="http://www.w3.org/2000/svg" p-id="3576" width="54.890625" height="48" xmlns:xlink="http://www.w3.org/1999/xlink"><defs><style type="text/css"></style></defs><path d="M585.142857 292.571429l-219.428571 0 0 219.428571 219.428571 0 0-219.428571zm73.142857 365.714286l0 73.142857-365.714286 0 0-73.142857 365.714286 0zm0-438.857143l0 365.714286-365.714286 0 0-365.714286 365.714286 0zm365.714286 438.857143l0 73.142857-292.571429 0 0-73.142857 292.571429 0zm0-146.285714l0 73.142857-292.571429 0 0-73.142857 292.571429 0zm0-146.285714l0 73.142857-292.571429 0 0-73.142857 292.571429 0zm0-146.285714l0 73.142857-292.571429 0 0-73.142857 292.571429 0zm-877.714286 548.571429l0-548.571429-73.142857 0 0 548.571429q0 14.857143 10.857143 25.714286t25.714286 10.857143 25.714286-10.857143 10.857143-25.714286zm950.857143 0l0-621.714286-877.714286 0 0 621.714286q0 18.857143-6.285714 36.571429l847.428571 0q14.857143 0 25.714286-10.857143t10.857143-25.714286zm73.142857-694.857143l0 694.857143q0 45.714286-32 77.714286t-77.714286 32l-950.857143 0q-45.714286 0-77.714286-32t-32-77.714286l0-621.714286 146.285714 0 0-73.142857 1024 0z" p-id="3577" fill="#ffffff"></path></svg>